# xmcd
#
# Track frame offsets:
#	150
#	11790
#	22201
#	35052
#	50308
#	61553
#	72695
#	86196
#	96115
#	108237
#	120929
#	132174
#	144871
#	160777
#	175511
#	185754
#	197686
#	211745
#	223699
#	233478
#	244607
#	257044
#	266886
#	276522
#
# Disc length: 4046 seconds
#
# Revision: 1
# Processed by: cddbd v1.5.2PL0 Copyright (c) Steve Scherf et al.
# Submitted via: audiograbber 1.83.01
#
DISCID=5a0fcc18
DTITLE=Various Artist - Action Speaks Louder Than Words
DYEAR=1900
DGENRE=
TTITLE0=Baby Al and The Capps - Grab You Partner and Do Your Own Thing
TTITLE1=Clarence Murray - Dancing to the Beat
TTITLE2=Sam Dees - Lonely For You Baby
TTITLE3=Clifford Curry - Soul Ranger
TTITLE4=Robert Parker - The Hiccup
TTITLE5=Johnny Soul - Lonely Man
TTITLE6=Marilyn Haywood - Mama, Ain't a Baby No More
TTITLE7=Reuben Bell - Action Speaks Louder Than Words
TTITLE8=Bettye Lavelle - Do Your Duty
TTITLE9=Betty Harris - There's a Break in the Road
TTITLE10=Gloria Taylor - Grounded Pt. 1
TTITLE11=Johnny Barfield and The Men of S.O.U.L. - Soul Butter
TTITLE12=The Jerms - Nobody
TTITLE13=Bright Lights - Motor City Funk Pt. 1
TTITLE14=Mr Jamo - Shake What You Got Pt. 1
TTITLE15=Johnny Adams - I Don't Worry Myself
TTITLE16=Mickey Murray - Sticky Sue
TTITLE17=Rosalind Madison - Fancy
TTITLE18=Jo Jo Benson - Having My Glory
TTITLE19=Georgie Boy - You'd Better Quit It
TTITLE20=Jake Porter - I Wanta Make Her Love Me till the Cows Come Home
TTITLE21=South Street Soul - Poppin' Popcorn
TTITLE22=Big Al Downing - Cornbread Row
TTITLE23=Bill Hemmans and Clay's Composite - Cloud Nine
EXTD=
EXTT0=
EXTT1=
EXTT2=
EXTT3=
EXTT4=
EXTT5=
EXTT6=
EXTT7=
EXTT8=
EXTT9=
EXTT10=
EXTT11=
EXTT12=
EXTT13=
EXTT14=
EXTT15=
EXTT16=
EXTT17=
EXTT18=
EXTT19=
EXTT20=
EXTT21=
EXTT22=
EXTT23=
PLAYORDER=
